PathFileType	4	(X/Y/Z)	C:\Users\86182\Documents\cortex\Trimmed_M4_H8.trc
DataRate	CameraRate	NumFrames	NumMarkers	Units	OrigDataRate	OrigDataStartFrame	OrigNumFrames
100.00	100.00	       98	2	mm	100.00	541	       901
Frame#	Time	gripper			box			
		X1	Y1	Z1	X2	Y2	Z2	

541	5.400	276.05811	151.13602	292.30054	277.97549	148.12447	154.57880	
542	5.410	276.06305	151.13393	292.30048	277.98428	148.12538	154.58029	
543	5.420	276.06885	151.13145	292.30048	277.99344	148.12582	154.58267	
544	5.430	276.07455	151.12914	292.30023	278.00131	148.12538	154.58575	
545	5.440	276.07956	151.12735	292.29956	278.00623	148.12398	154.58897	
546	5.450	276.08350	151.12633	292.29834	278.00745	148.12195	154.59164	
547	5.460	276.08603	151.12607	292.29672	278.00540	148.11974	154.59335	
548	5.470	276.08701	151.12646	292.29517	278.00110	148.11775	154.59401	
549	5.480	276.08643	151.12729	292.29404	277.99570	148.11636	154.59375	
550	5.490	276.08450	151.12833	292.29361	277.99036	148.11566	154.59303	
551	5.500	276.08167	151.12933	292.29398	277.98618	148.11531	154.59261	
552	5.510	276.07840	151.13008	292.29520	277.98373	148.11462	154.59323	
553	5.520	276.07526	151.13040	292.29715	277.98288	148.11317	154.59511	
554	5.530	276.07263	151.13029	292.29950	277.98309	148.11108	154.59782	
555	5.540	276.07062	151.12997	292.30176	277.98380	148.10896	154.60051	
556	5.550	276.06927	151.12959	292.30362	277.98447	148.10748	154.60226	
557	5.560	276.06863	151.12923	292.30484	277.98459	148.10718	154.60242	
558	5.570	276.06863	151.12891	292.30545	277.98389	148.10825	154.60069	
559	5.580	276.06931	151.12859	292.30548	277.98248	148.11061	154.59732	
560	5.590	276.07062	151.12820	292.30511	277.98099	148.11388	154.59299	
561	5.600	276.07248	151.12772	292.30450	277.98016	148.11755	154.58853	
562	5.610	276.07471	151.12709	292.30389	277.98068	148.12126	154.58472	
563	5.620	276.07712	151.12630	292.30347	277.98276	148.12463	154.58209	
564	5.630	276.07959	151.12540	292.30322	277.98624	148.12724	154.58102	
565	5.640	276.08197	151.12448	292.30310	277.99081	148.12874	154.58160	
566	5.650	276.08408	151.12363	292.30304	277.99588	148.12898	154.58365	
567	5.660	276.08560	151.12297	292.30310	278.00067	148.12796	154.58665	
568	5.670	276.08624	151.12262	292.30331	278.00424	148.12595	154.58987	
569	5.680	276.08575	151.12262	292.30365	278.00595	148.12341	154.59259	
570	5.690	276.08438	151.12296	292.30408	278.00565	148.12085	154.59438	
571	5.700	276.08252	151.12347	292.30450	278.00351	148.11859	154.59518	
572	5.710	276.08066	151.12404	292.30487	277.99988	148.11681	154.59520	
573	5.720	276.07907	151.12457	292.30505	277.99530	148.11546	154.59477	
574	5.730	276.07797	151.12497	292.30515	277.99051	148.11447	154.59425	
575	5.740	276.07745	151.12517	292.30511	277.98666	148.11389	154.59390	
576	5.750	276.07770	151.12512	292.30505	277.98492	148.11389	154.59381	
577	5.760	276.07870	151.12485	292.30481	277.98627	148.11449	154.59412	
578	5.770	276.08032	151.12440	292.30438	277.99081	148.11552	154.59477	
579	5.780	276.08224	151.12392	292.30389	277.99759	148.11670	154.59564	
580	5.790	276.08408	151.12346	292.30334	278.00500	148.11748	154.59659	
581	5.800	276.08554	151.12312	292.30286	278.01172	148.11734	154.59764	
582	5.810	276.08633	151.12306	292.30237	278.01706	148.11620	154.59872	
583	5.820	276.08624	151.12337	292.30182	278.02032	148.11487	154.59932	
584	5.830	276.08533	151.12408	292.30115	278.02106	148.11455	154.59882	
585	5.840	276.08374	151.12511	292.30035	278.01968	148.11569	154.59726	
586	5.850	276.08167	151.12630	292.29968	278.01770	148.11757	154.59554	
587	5.860	276.07938	151.12740	292.29932	278.01660	148.11914	154.59448	
588	5.870	276.07733	151.12808	292.29959	278.01642	148.12012	154.59422	
589	5.880	276.07605	151.12822	292.30038	278.01636	148.12090	154.59421	
590	5.890	276.07581	151.12776	292.30145	278.01608	148.12198	154.59395	
591	5.900	276.07657	151.12691	292.30252	278.01599	148.12354	154.59332	
592	5.910	276.07809	151.12589	292.30328	278.01642	148.12532	154.59241	
593	5.920	276.08002	151.12492	292.30368	278.01682	148.12704	154.59125	
594	5.930	276.08197	151.12416	292.30359	278.01627	148.12865	154.58966	
595	5.940	276.08383	151.12367	292.30310	278.01434	148.13031	154.58749	
596	5.950	276.08566	151.12337	292.30225	278.01154	148.13196	154.58522	
597	5.960	276.08762	151.12317	292.30109	278.00897	148.13303	154.58376	
598	5.970	276.08969	151.12296	292.29987	278.00751	148.13295	154.58377	
599	5.980	276.09189	151.12268	292.29871	278.00708	148.13168	154.58527	
600	5.990	276.09384	151.12231	292.29785	278.00745	148.12953	154.58784	
601	6.000	276.09521	151.12193	292.29755	278.00854	148.12708	154.59094	
602	6.010	276.09549	151.12166	292.29788	278.01035	148.12486	154.59393	
603	6.020	276.09457	151.12160	292.29871	278.01233	148.12314	154.59637	
604	6.030	276.09283	151.12178	292.29974	278.01361	148.12201	154.59790	
605	6.040	276.09106	151.12207	292.30060	278.01349	148.12158	154.59828	
606	6.050	276.09009	151.12230	292.30090	278.01160	148.12170	154.59756	
607	6.060	276.09033	151.12231	292.30066	278.00824	148.12202	154.59619	
608	6.070	276.09180	151.12210	292.29996	278.00452	148.12230	154.59465	
609	6.080	276.09393	151.12172	292.29901	278.00156	148.12267	154.59320	
610	6.090	276.09586	151.12140	292.29813	278.00009	148.12354	154.59175	
611	6.100	276.09662	151.12138	292.29755	278.00052	148.12524	154.59018	
612	6.110	276.09567	151.12178	292.29755	278.00266	148.12762	154.58853	
613	6.120	276.09311	151.12250	292.29819	278.00543	148.12993	154.58714	
614	6.130	276.08960	151.12334	292.29935	278.00711	148.13109	154.58640	
615	6.140	276.08603	151.12408	292.30072	278.00638	148.13036	154.58652	
616	6.150	276.08334	151.12453	292.30194	278.00314	148.12772	154.58757	
617	6.160	276.08224	151.12454	292.30280	277.99838	148.12369	154.58948	
618	6.170	276.08304	151.12407	292.30310	277.99362	148.11908	154.59212	
619	6.180	276.08560	151.12317	292.30276	277.98993	148.11452	154.59531	
620	6.190	276.08960	151.12201	292.30188	277.98776	148.11044	154.59889	
621	6.200	276.09442	151.12073	292.30060	277.98734	148.10712	154.60254	
622	6.210	276.09927	151.11948	292.29919	277.98877	148.10483	154.60587	
623	6.220	276.10355	151.11844	292.29785	277.99203	148.10387	154.60849	
624	6.230	276.10666	151.11772	292.29678	277.99695	148.10440	154.61014	
625	6.240	276.10818	151.11746	292.29614	278.00308	148.10654	154.61057	
626	6.250	276.10794	151.11765	292.29596	278.00958	148.11012	154.60959	
627	6.260	276.10596	151.11826	292.29636	278.01517	148.11464	154.60722	
628	6.270	276.10260	151.11916	292.29724	278.01852	148.11932	154.60374	
629	6.280	276.09830	151.12022	292.29852	278.01892	148.12317	154.59982	
630	6.290	276.09348	151.12137	292.30008	278.01645	148.12544	154.59631	
631	6.300	276.08850	151.12256	292.30164	278.01178	148.12592	154.59389	
632	6.310	276.08380	151.12367	292.30310	278.00583	148.12482	154.59280	
633	6.320	276.07983	151.12459	292.30438	277.99969	148.12268	154.59299	
634	6.330	276.07681	151.12523	292.30548	277.99429	148.11993	154.59427	
635	6.340	276.07498	151.12552	292.30624	277.99008	148.11688	154.59637	
636	6.350	276.07440	151.12552	292.30664	277.98715	148.11380	154.59891	
637	6.360	276.07504	151.12526	292.30664	277.98538	148.11095	154.60141	
638	6.370	276.07675	151.12480	292.30615	277.98456	148.10867	154.60342	
